# xmcd CD database file
#
# Track frame offsets:
#	150
#	12609
#	25598
#	40066
#	55057
#	67670
#	83033
#	97572
#	107529
#	119688
#	131553
#	145972
#	157537
#	171667
#	184762
#	198854
#	211727
#	223392
#	238442
#	252311
#
# Disc length: 3520 seconds
#
# Revision: 0
# Processed by: cddbd v1.5.1PL0 Copyright (c) Steve Scherf et al.
# Submitted via: CDex 1.51
#
DISCID=110dbe14
DTITLE=Ella Fitzgerald - The Definitive Collection 1936-1953 [CD2]
DYEAR=2004
DGENRE=Jazz
TTITLE0=Blue Lou
TTITLE1=Angel Eyes
TTITLE2=Early Autumn
TTITLE3=Give A Little, Get A Little
TTITLE4=There Never Was A Lover like My Baby
TTITLE5=Maybe
TTITLE6=How Long Has This Been Going On?
TTITLE7=I Donlt Want The World
TTITLE8=Baby It's Cold Outside (with Louis Jordan)
TTITLE9=Tea Leaves
TTITLE10=Guilty
TTITLE11=It's Only A Paper Moon
TTITLE12=Into Each Life Some Rain Must Fall (with The Ink Spots)
TTITLE13=Cow Cow Boogie (with The Ink Spots)
TTITLE14=I Want The Waiter (With The Water)
TTITLE15=FDR Jones
TTITLE16=Found My Yellow Basket
TTITLE17=I Got A Guy
TTITLE18=If You Ever Should Leave
TTITLE19=Sing Me A Swing Song (And Let Me Dance)
EXTD=YEAR: 2004
EXTT0=
EXTT1=
EXTT2=
EXTT3=
EXTT4=
EXTT5=
EXTT6=
EXTT7=
EXTT8=
EXTT9=
EXTT10=
EXTT11=
EXTT12=
EXTT13=
EXTT14=
EXTT15=
EXTT16=
EXTT17=
EXTT18=
EXTT19=
PLAYORDER=
